<?xml version="1.0" encoding="utf-8"?>
<!-- Generator: Adobe Illustrator 16.0.0, SVG Export Plug-In . SVG Version: 6.00 Build 0)  -->
<!DOCTYPE svg PUBLIC "-//W3C//DTD SVG 1.1//EN" "http://www.w3.org/Graphics/SVG/1.1/DTD/svg11.dtd">
<svg version="1.1" xmlns="http://www.w3.org/2000/svg" xmlns:xlink="http://www.w3.org/1999/xlink" x="0px" y="0px" width="266px"
	 height="38px" viewBox="0 0 266 38" enable-background="new 0 0 266 38" xml:space="preserve">
<g id="Markers" display="none">
	<rect x="66.5" y="9.5" display="inline" fill="#D9D9D9" width="19" height="19"/>
	<rect x="85.5" y="9.5" display="inline" fill="#F5F5F5" width="19" height="19"/>
	<rect x="104.5" y="9.5" display="inline" fill="#D9D9D9" width="19" height="19"/>
	<rect x="123.5" y="9.5" display="inline" fill="#F5F5F5" width="19" height="19"/>
	<rect x="142.5" y="9.5" display="inline" fill="#D9D9D9" width="19" height="19"/>
	<rect x="161.5" y="9.5" display="inline" fill="#F5F5F5" width="19" height="19"/>
</g>
<g id="bg">
	
		<circle fill="#FFFFFF" stroke="#FFFFFF" stroke-width="2.003" stroke-linecap="round" stroke-miterlimit="10" cx="18.981" cy="14.531" r="14.71"/>
</g>
<g id="Logos">
	<g>
		<circle fill="#96A1B7" cx="57.028" cy="19.025" r="14.71"/>
		<path fill="#96A1B7" d="M57.028,0.998c-9.956,0-18.027,8.072-18.027,18.027c0,9.957,8.071,18.028,18.027,18.028
			c9.955,0,18.028-8.071,18.028-18.028C75.056,9.07,66.983,0.998,57.028,0.998z M63.032,18.952h-3.928c0,6.279,0,14.008,0,14.008
			H53.28c0,0,0-7.651,0-14.008h-2.768v-4.945h2.768V10.8c0-2.292,1.09-5.874,5.878-5.874l4.309,0.018v4.803c0,0-2.619,0-3.127,0
			c-0.511,0-1.236,0.254-1.236,1.346v2.914h4.438L63.032,18.952z"/>
		<circle fill="#96A1B7" cx="95.085" cy="19.025" r="14.709"/>
		<path fill="#96A1B7" d="M95.086,0.998c-9.957,0-18.027,8.072-18.027,18.027c0,9.957,8.07,18.028,18.027,18.028
			c9.954,0,18.026-8.071,18.026-18.028C113.112,9.07,105.04,0.998,95.086,0.998z M101.089,18.952h-3.928c0,6.279,0,14.008,0,14.008
			h-5.823c0,0,0-7.651,0-14.008H88.57v-4.945h2.768V10.8c0-2.292,1.089-5.874,5.878-5.874l4.31,0.018v4.803c0,0-2.62,0-3.128,0
			c-0.511,0-1.236,0.254-1.236,1.346v2.914h4.438L101.089,18.952z"/>
		<circle fill="#96A1B7" cx="133.143" cy="19.025" r="14.709"/>
		<path fill="#96A1B7" d="M133.144,0.998c-9.957,0-18.027,8.072-18.027,18.027c0,9.957,8.07,18.028,18.027,18.028
			c9.953,0,18.026-8.071,18.026-18.028C151.17,9.07,143.097,0.998,133.144,0.998z M139.146,18.952h-3.928c0,6.279,0,14.008,0,14.008
			h-5.823c0,0,0-7.651,0-14.008h-2.769v-4.945h2.769V10.8c0-2.292,1.089-5.874,5.878-5.874l4.31,0.018v4.803c0,0-2.62,0-3.128,0
			c-0.511,0-1.236,0.254-1.236,1.346v2.914h4.438L139.146,18.952z"/>
		<circle fill="#96A1B7" cx="171.2" cy="19.025" r="14.71"/>
		<path fill="#96A1B7" d="M171.201,0.998c-9.957,0-18.028,8.072-18.028,18.027c0,9.957,8.071,18.028,18.028,18.028
			c9.953,0,18.027-8.071,18.027-18.028C189.229,9.07,181.154,0.998,171.201,0.998z M177.204,18.952h-3.928
			c0,6.279,0,14.008,0,14.008h-5.823c0,0,0-7.651,0-14.008h-2.769v-4.945h2.769V10.8c0-2.292,1.089-5.874,5.878-5.874l4.309,0.018
			v4.803c0,0-2.619,0-3.127,0c-0.512,0-1.236,0.254-1.236,1.346v2.914h4.438L177.204,18.952z"/>
		<circle fill="#96A1B7" cx="209.257" cy="19.025" r="14.709"/>
		<path fill="#96A1B7" d="M209.258,0.998c-9.956,0-18.027,8.072-18.027,18.027c0,9.955,8.071,18.026,18.027,18.026
			c9.954,0,18.027-8.071,18.027-18.026C227.285,9.07,219.212,0.998,209.258,0.998z M215.261,18.952h-3.928
			c0,6.277,0,14.006,0,14.006h-5.823c0,0,0-7.651,0-14.006h-2.768v-4.945h2.768V10.8c0-2.292,1.089-5.874,5.878-5.874l4.31,0.018
			v4.803c0,0-2.619,0-3.128,0c-0.511,0-1.236,0.254-1.236,1.346v2.914h4.438L215.261,18.952z"/>
		<circle fill="#96A1B7" cx="247.335" cy="19.026" r="14.709"/>
		<path fill="#96A1B7" d="M247.335,0.998c-9.957,0-18.027,8.072-18.027,18.028c0,9.954,8.07,18.025,18.027,18.025
			c9.954,0,18.027-8.071,18.027-18.025C265.362,9.07,257.289,0.998,247.335,0.998z M253.338,18.952h-3.928
			c0,6.277,0,14.006,0,14.006h-5.823c0,0,0-7.651,0-14.006h-2.769v-4.945h2.769V10.8c0-2.292,1.09-5.874,5.879-5.874l4.309,0.018
			v4.803c0,0-2.619,0-3.128,0c-0.511,0-1.236,0.254-1.236,1.346v2.914h4.438L253.338,18.952z"/>
		<path fill="#96A1B7" d="M18.98,0.202c-10.299,0-18.647,8.35-18.647,18.648c0,10.296,8.348,18.648,18.647,18.648
			c10.299,0,18.649-8.352,18.649-18.648C37.63,8.552,29.279,0.202,18.98,0.202z M23.916,18.772h-3.23c0,5.161,0,11.512,0,11.512
			h-4.787c0,0,0-6.29,0-11.512h-2.274v-4.066h2.274V12.07c0-1.885,0.897-4.83,4.832-4.83l3.543,0.014v3.952c0,0-2.152,0-2.571,0
			c-0.42,0-1.017,0.206-1.017,1.104v2.396h3.65L23.916,18.772z"/>
	</g>
	<g>
		
			<circle fill="#FFFFFF" stroke="#FFFFFF" stroke-width="2.003" stroke-linecap="round" stroke-miterlimit="10" cx="57.028" cy="19.025" r="14.71"/>
		<path fill="#3B5999" d="M57.028,0.998c-9.956,0-18.027,8.072-18.027,18.027c0,9.957,8.071,18.028,18.027,18.028
			c9.955,0,18.028-8.071,18.028-18.028C75.056,9.07,66.983,0.998,57.028,0.998z M63.032,18.952h-3.928c0,6.279,0,14.008,0,14.008
			H53.28c0,0,0-7.651,0-14.008h-2.768v-4.945h2.768V10.8c0-2.292,1.09-5.874,5.878-5.874l4.309,0.018v4.803c0,0-2.619,0-3.127,0
			c-0.511,0-1.236,0.254-1.236,1.346v2.914h4.438L63.032,18.952z"/>
		
			<circle fill="#FFFFFF" stroke="#FFFFFF" stroke-width="2.003" stroke-linecap="round" stroke-miterlimit="10" cx="95.085" cy="19.025" r="14.709"/>
		<path fill="#768199" d="M95.086,0.998c-9.957,0-18.027,8.072-18.027,18.027c0,9.957,8.07,18.028,18.027,18.028
			c9.954,0,18.026-8.071,18.026-18.028C113.112,9.07,105.04,0.998,95.086,0.998z M101.089,18.952h-3.928c0,6.279,0,14.008,0,14.008
			h-5.823c0,0,0-7.651,0-14.008H88.57v-4.945h2.768V10.8c0-2.292,1.089-5.874,5.878-5.874l4.31,0.018v4.803c0,0-2.62,0-3.128,0
			c-0.511,0-1.236,0.254-1.236,1.346v2.914h4.438L101.089,18.952z"/>
		
			<circle fill="#FFFFFF" stroke="#FFFFFF" stroke-width="2.003" stroke-linecap="round" stroke-miterlimit="10" cx="133.143" cy="19.025" r="14.709"/>
		<path fill="#768199" d="M133.144,0.998c-9.957,0-18.027,8.072-18.027,18.027c0,9.957,8.07,18.028,18.027,18.028
			c9.953,0,18.026-8.071,18.026-18.028C151.17,9.07,143.097,0.998,133.144,0.998z M139.146,18.952h-3.928c0,6.279,0,14.008,0,14.008
			h-5.823c0,0,0-7.651,0-14.008h-2.769v-4.945h2.769V10.8c0-2.292,1.089-5.874,5.878-5.874l4.31,0.018v4.803c0,0-2.62,0-3.128,0
			c-0.511,0-1.236,0.254-1.236,1.346v2.914h4.438L139.146,18.952z"/>
		
			<circle fill="#FFFFFF" stroke="#FFFFFF" stroke-width="2.003" stroke-linecap="round" stroke-miterlimit="10" cx="171.2" cy="19.025" r="14.71"/>
		<path fill="#768199" d="M171.201,0.998c-9.957,0-18.028,8.072-18.028,18.027c0,9.957,8.071,18.028,18.028,18.028
			c9.953,0,18.027-8.071,18.027-18.028C189.229,9.07,181.154,0.998,171.201,0.998z M177.204,18.952h-3.928
			c0,6.279,0,14.008,0,14.008h-5.823c0,0,0-7.651,0-14.008h-2.769v-4.945h2.769V10.8c0-2.292,1.089-5.874,5.878-5.874l4.309,0.018
			v4.803c0,0-2.619,0-3.127,0c-0.512,0-1.236,0.254-1.236,1.346v2.914h4.438L177.204,18.952z"/>
		
			<circle fill="#FFFFFF" stroke="#FFFFFF" stroke-width="2.003" stroke-linecap="round" stroke-miterlimit="10" cx="209.257" cy="19.025" r="14.709"/>
		<path fill="#768199" d="M209.258,0.998c-9.956,0-18.027,8.072-18.027,18.027c0,9.955,8.071,18.026,18.027,18.026
			c9.954,0,18.027-8.071,18.027-18.026C227.285,9.07,219.212,0.998,209.258,0.998z M215.261,18.952h-3.928
			c0,6.277,0,14.006,0,14.006h-5.823c0,0,0-7.651,0-14.006h-2.768v-4.945h2.768V10.8c0-2.292,1.089-5.874,5.878-5.874l4.31,0.018
			v4.803c0,0-2.619,0-3.128,0c-0.511,0-1.236,0.254-1.236,1.346v2.914h4.438L215.261,18.952z"/>
		
			<circle fill="#FFFFFF" stroke="#FFFFFF" stroke-width="2.003" stroke-linecap="round" stroke-miterlimit="10" cx="247.335" cy="19.026" r="14.709"/>
		<path fill="#768199" d="M247.335,0.998c-9.957,0-18.027,8.072-18.027,18.028c0,9.954,8.07,18.025,18.027,18.025
			c9.954,0,18.027-8.071,18.027-18.025C265.362,9.07,257.289,0.998,247.335,0.998z M253.338,18.952h-3.928
			c0,6.277,0,14.006,0,14.006h-5.823c0,0,0-7.651,0-14.006h-2.769v-4.945h2.769V10.8c0-2.292,1.09-5.874,5.879-5.874l4.309,0.018
			v4.803c0,0-2.619,0-3.128,0c-0.511,0-1.236,0.254-1.236,1.346v2.914h4.438L253.338,18.952z"/>
		<path fill="#8F8F8F" d="M18.98,0.202c-10.299,0-18.647,8.35-18.647,18.648c0,10.296,8.348,18.648,18.647,18.648
			c10.299,0,18.649-8.352,18.649-18.648C37.63,8.552,29.279,0.202,18.98,0.202z M23.916,18.772h-3.23c0,5.161,0,11.512,0,11.512
			h-4.787c0,0,0-6.29,0-11.512h-2.274v-4.066h2.274V12.07c0-1.885,0.897-4.83,4.832-4.83l3.543,0.014v3.952c0,0-2.152,0-2.571,0
			c-0.42,0-1.017,0.206-1.017,1.104v2.396h3.65L23.916,18.772z"/>
	</g>
</g>
<g id="Moustaches">
	<g>
		<path fill="none" stroke="#C43627" stroke-width="5.0076" stroke-linecap="round" stroke-miterlimit="10" d="M106.049,27.604
			c-3.381-6.457-5.263-4.44-10.953-4.44s-7.572-2.017-10.955,4.44"/>
	</g>
	<path fill="#C43627" d="M135.236,21.458c0.792-1.31,2.746-1.616,4.206-0.398c1.448,1.203,3.227,5.424,4.274,6.132
		c1.049,0.7,2.302,1.088,3.311,0.562c1.009-0.524,1.735-1.652,1.451-2.665c-0.217-0.77-0.706-1.189-0.724-2.098
		c-0.021-0.908,2.543,1.512,2.746,2.341c0.323,1.334,0.06,2.363-0.95,3.78c-1.012,1.406-2.385,1.894-3.493,2.034
		c-1.112,0.141-3.813-0.224-5.491-1.128c-1.673-0.906-4.46-2.313-5.488-4.549C134.047,23.235,135.236,21.458,135.236,21.458z"/>
	<path fill="#C43627" d="M131.07,21.458c-0.793-1.31-2.747-1.616-4.207-0.398c-1.449,1.203-3.227,5.424-4.275,6.132
		c-1.05,0.7-2.301,1.088-3.31,0.562c-1.01-0.524-1.735-1.652-1.452-2.665c0.218-0.77,0.706-1.189,0.725-2.098
		c0.021-0.908-2.543,1.512-2.746,2.341c-0.323,1.334-0.06,2.363,0.95,3.78c1.012,1.406,2.385,1.894,3.493,2.034
		c1.111,0.141,3.813-0.224,5.491-1.128c1.673-0.906,4.46-2.313,5.488-4.549C132.259,23.235,131.07,21.458,131.07,21.458z"/>
	<path fill="#C43627" d="M171.21,38.128c0,0,3.167-0.344,3.756-0.778c0.593-0.428,3.326-4.17,3.756-5.437
		c0.432-1.271,0.376-5.814,0-6.433c-0.374-0.625-1.35-0.994-2.244-0.565c-0.894,0.435-1.279,1.211-1.555,1.642
		c-0.279,0.434-1.467,0.461-1.843,0c-0.375-0.461-0.432-1.724-0.92-2.158c-0.486-0.433-0.95-0.433-0.95-0.433s-0.464,0-0.951,0.433
		c-0.486,0.435-0.543,1.697-0.918,2.158c-0.376,0.461-1.563,0.434-1.843,0c-0.275-0.431-0.661-1.207-1.556-1.642
		c-0.894-0.429-1.87-0.06-2.243,0.565c-0.376,0.618-0.433,5.162,0,6.433c0.43,1.267,3.162,5.009,3.756,5.437
		C168.043,37.784,171.21,38.128,171.21,38.128z"/>
	<g>
		<g>
			<path fill="none" stroke="#C43627" stroke-width="4.006" stroke-linecap="round" stroke-miterlimit="10" d="M167.582,18.886
				c-2.33,0-2.626-0.004-4.008,1.403"/>
		</g>
		<g>
			<path fill="none" stroke="#C43627" stroke-width="4.006" stroke-linecap="round" stroke-miterlimit="10" d="M174.839,18.884
				c2.329,0,2.625-0.002,4.008,1.405"/>
		</g>
	</g>
	<g>
		<path fill="none" stroke="#C43627" stroke-width="4.006" stroke-linecap="round" stroke-miterlimit="10" d="M214.952,21.028
			c-1.757-1.783-2.732-1.78-5.685-1.78s-3.928-0.003-5.685,1.78"/>
	</g>
	<path fill="#C43627" d="M209.268,36.876c0,0,2.122-0.299,2.516-0.676c0.397-0.374,2.226-3.63,2.518-4.73
		c0.29-1.105,0.25-5.058,0-5.597c-0.253-0.542-0.905-0.864-1.503-0.491c-0.601,0.378-0.857,1.053-1.044,1.429
		c-0.187,0.377-0.982,0.401-1.234,0c-0.248-0.4-0.287-1.5-0.614-1.878c-0.328-0.375-0.638-0.375-0.638-0.375s-0.309,0-0.637,0.375
		c-0.328,0.378-0.367,1.478-0.614,1.878c-0.253,0.401-1.049,0.377-1.234,0c-0.187-0.376-0.444-1.051-1.045-1.429
		c-0.598-0.373-1.25-0.051-1.503,0.491c-0.25,0.539-0.289,4.491,0,5.597c0.289,1.101,2.121,4.356,2.518,4.73
		C207.146,36.577,209.268,36.876,209.268,36.876z"/>
	<path fill="#C43627" d="M218.045,25.49c0,0,3.546-1.804,4.679-3.036s3.9-7.633,4.205-7.221c0.307,0.414,0.936,7.622-1.265,11.8
		c-2.199,4.176-6.482,7.208-8.57,8.059c-2.089,0.852-1.48-0.646-1.48-0.646s1.72-2.416,2.312-3.729
		C218.519,29.403,218.045,25.49,218.045,25.49z"/>
	<path fill="#C43627" d="M200.447,25.49c0,0-3.546-1.804-4.679-3.036c-1.131-1.232-3.9-7.633-4.206-7.221
		c-0.304,0.414-0.935,7.622,1.266,11.8c2.199,4.176,6.483,7.208,8.57,8.059c2.089,0.852,1.48-0.646,1.48-0.646
		s-1.72-2.416-2.312-3.729C199.974,29.403,200.447,25.49,200.447,25.49z"/>
	<g>
		<path fill="none" stroke="#C43627" stroke-width="4.006" stroke-linecap="round" stroke-miterlimit="10" d="M255.401,24.94
			c-2.487-5.695-3.871-5.682-8.058-5.682c-4.183,0-5.566-0.013-8.054,5.682"/>
	</g>
	<path fill="#C43627" d="M247.344,37.217c0,0,4.952-0.299,5.873-0.675c0.926-0.376,5.197-3.629,5.872-4.731
		c0.677-1.105,0.583-5.058,0-5.597c-0.587-0.542-2.112-0.864-3.508-0.489c-1.4,0.376-1.998,1.051-2.433,1.426
		c-0.435,0.378-2.293,0.403-2.881,0c-0.584-0.399-0.676-1.5-1.437-1.875c-0.765-0.378-1.487-0.378-1.487-0.378s-0.721,0-1.483,0.378
		c-0.761,0.375-0.854,1.476-1.438,1.875c-0.586,0.403-2.444,0.378-2.879,0c-0.435-0.375-1.033-1.05-2.435-1.426
		c-1.394-0.375-2.92-0.053-3.506,0.489c-0.583,0.539-0.677,4.491,0,5.597c0.672,1.103,4.944,4.355,5.871,4.731
		C242.396,36.918,247.344,37.217,247.344,37.217z"/>
	<path fill="#C43627" d="M256.121,25.5c0,0,3.547-1.806,4.68-3.038c1.132-1.232,3.9-7.632,4.207-7.219
		c0.306,0.413,0.933,7.622-1.266,11.798c-2.201,4.179-6.482,7.21-8.571,8.06c-2.089,0.851-1.481-0.646-1.481-0.646
		s1.72-2.418,2.314-3.729C256.597,29.414,256.121,25.5,256.121,25.5z"/>
	<path fill="#C43627" d="M238.526,25.5c0,0-3.546-1.806-4.679-3.038c-1.132-1.232-3.9-7.632-4.207-7.219
		c-0.306,0.413-0.934,7.622,1.266,11.798c2.2,4.179,6.482,7.21,8.571,8.06c2.089,0.851,1.48-0.646,1.48-0.646
		s-1.719-2.418-2.312-3.729S238.526,25.5,238.526,25.5z"/>
</g>
</svg>
